<mxfile host="app.diagrams.net" modified="2024-06-25T19:49:21.832Z" agent="Mozilla/5.0 (Windows NT 10.0; Win64; x64) AppleWebKit/537.36 (KHTML, like Gecko) Chrome/126.0.0.0 Safari/537.36" etag="Fb5Ib5xvr5Rge_Qsj4eG" version="24.6.3" type="device">
  <diagram name="Página-1" id="3S_H3k_uFPwnoY7iZGDE">
    <mxGraphModel dx="1185" dy="673" grid="1" gridSize="10" guides="1" tooltips="1" connect="1" arrows="1" fold="1" page="1" pageScale="1" pageWidth="827" pageHeight="1169" math="0" shadow="0">
      <root>
        <mxCell id="0" />
        <mxCell id="1" parent="0" />
        <mxCell id="xlKwYq5IpJoC52id8MFw-3" value="" style="edgeStyle=orthogonalEdgeStyle;rounded=0;orthogonalLoop=1;jettySize=auto;html=1;" edge="1" parent="1" source="xlKwYq5IpJoC52id8MFw-1" target="xlKwYq5IpJoC52id8MFw-2">
          <mxGeometry relative="1" as="geometry" />
        </mxCell>
        <mxCell id="xlKwYq5IpJoC52id8MFw-1" value="Inicio" style="rounded=1;whiteSpace=wrap;html=1;" vertex="1" parent="1">
          <mxGeometry x="354" y="30" width="120" height="60" as="geometry" />
        </mxCell>
        <mxCell id="xlKwYq5IpJoC52id8MFw-5" value="" style="edgeStyle=orthogonalEdgeStyle;rounded=0;orthogonalLoop=1;jettySize=auto;html=1;" edge="1" parent="1" source="xlKwYq5IpJoC52id8MFw-2" target="xlKwYq5IpJoC52id8MFw-4">
          <mxGeometry relative="1" as="geometry" />
        </mxCell>
        <mxCell id="xlKwYq5IpJoC52id8MFw-2" value="Entrar no restaurante" style="rounded=0;whiteSpace=wrap;html=1;" vertex="1" parent="1">
          <mxGeometry x="354" y="130" width="120" height="60" as="geometry" />
        </mxCell>
        <mxCell id="xlKwYq5IpJoC52id8MFw-7" value="" style="edgeStyle=orthogonalEdgeStyle;rounded=0;orthogonalLoop=1;jettySize=auto;html=1;" edge="1" parent="1" source="xlKwYq5IpJoC52id8MFw-4">
          <mxGeometry relative="1" as="geometry">
            <mxPoint x="414" y="320" as="targetPoint" />
          </mxGeometry>
        </mxCell>
        <mxCell id="xlKwYq5IpJoC52id8MFw-4" value="Ver a ementa" style="rounded=0;whiteSpace=wrap;html=1;" vertex="1" parent="1">
          <mxGeometry x="354" y="230" width="120" height="60" as="geometry" />
        </mxCell>
        <mxCell id="xlKwYq5IpJoC52id8MFw-45" style="edgeStyle=orthogonalEdgeStyle;rounded=0;orthogonalLoop=1;jettySize=auto;html=1;entryX=0.5;entryY=0;entryDx=0;entryDy=0;exitX=1;exitY=0.5;exitDx=0;exitDy=0;" edge="1" parent="1" source="xlKwYq5IpJoC52id8MFw-8" target="xlKwYq5IpJoC52id8MFw-51">
          <mxGeometry relative="1" as="geometry">
            <mxPoint x="680" y="600" as="targetPoint" />
            <Array as="points">
              <mxPoint x="560" y="360" />
            </Array>
          </mxGeometry>
        </mxCell>
        <mxCell id="xlKwYq5IpJoC52id8MFw-47" value="Peixe" style="edgeLabel;html=1;align=center;verticalAlign=middle;resizable=0;points=[];" vertex="1" connectable="0" parent="xlKwYq5IpJoC52id8MFw-45">
          <mxGeometry x="0.0275" y="-1" relative="1" as="geometry">
            <mxPoint as="offset" />
          </mxGeometry>
        </mxCell>
        <mxCell id="xlKwYq5IpJoC52id8MFw-8" value="Escolher o que comer" style="rhombus;whiteSpace=wrap;html=1;" vertex="1" parent="1">
          <mxGeometry x="374" y="320" width="80" height="80" as="geometry" />
        </mxCell>
        <mxCell id="xlKwYq5IpJoC52id8MFw-24" style="edgeStyle=orthogonalEdgeStyle;rounded=0;orthogonalLoop=1;jettySize=auto;html=1;exitX=0;exitY=0.5;exitDx=0;exitDy=0;entryX=0.5;entryY=0;entryDx=0;entryDy=0;" edge="1" parent="1" source="xlKwYq5IpJoC52id8MFw-8" target="xlKwYq5IpJoC52id8MFw-53">
          <mxGeometry relative="1" as="geometry">
            <mxPoint x="110" y="510" as="sourcePoint" />
            <mxPoint x="300" y="570" as="targetPoint" />
            <Array as="points">
              <mxPoint x="280" y="360" />
            </Array>
          </mxGeometry>
        </mxCell>
        <mxCell id="xlKwYq5IpJoC52id8MFw-46" value="Carne" style="edgeLabel;html=1;align=center;verticalAlign=middle;resizable=0;points=[];" vertex="1" connectable="0" parent="xlKwYq5IpJoC52id8MFw-24">
          <mxGeometry x="0.0297" relative="1" as="geometry">
            <mxPoint as="offset" />
          </mxGeometry>
        </mxCell>
        <mxCell id="xlKwYq5IpJoC52id8MFw-28" style="edgeStyle=orthogonalEdgeStyle;rounded=0;orthogonalLoop=1;jettySize=auto;html=1;entryX=0.5;entryY=0;entryDx=0;entryDy=0;" edge="1" parent="1" source="xlKwYq5IpJoC52id8MFw-22" target="xlKwYq5IpJoC52id8MFw-27">
          <mxGeometry relative="1" as="geometry" />
        </mxCell>
        <mxCell id="xlKwYq5IpJoC52id8MFw-22" value="Comer" style="rounded=0;whiteSpace=wrap;html=1;" vertex="1" parent="1">
          <mxGeometry x="350" y="570" width="120" height="60" as="geometry" />
        </mxCell>
        <mxCell id="xlKwYq5IpJoC52id8MFw-57" style="edgeStyle=orthogonalEdgeStyle;rounded=0;orthogonalLoop=1;jettySize=auto;html=1;entryX=0.5;entryY=0;entryDx=0;entryDy=0;" edge="1" parent="1" source="xlKwYq5IpJoC52id8MFw-27" target="xlKwYq5IpJoC52id8MFw-56">
          <mxGeometry relative="1" as="geometry">
            <Array as="points">
              <mxPoint x="310" y="730" />
            </Array>
          </mxGeometry>
        </mxCell>
        <mxCell id="xlKwYq5IpJoC52id8MFw-61" value="Sim" style="edgeLabel;html=1;align=center;verticalAlign=middle;resizable=0;points=[];" vertex="1" connectable="0" parent="xlKwYq5IpJoC52id8MFw-57">
          <mxGeometry x="-0.4698" y="-2" relative="1" as="geometry">
            <mxPoint as="offset" />
          </mxGeometry>
        </mxCell>
        <mxCell id="xlKwYq5IpJoC52id8MFw-58" style="edgeStyle=orthogonalEdgeStyle;rounded=0;orthogonalLoop=1;jettySize=auto;html=1;entryX=0.5;entryY=0;entryDx=0;entryDy=0;" edge="1" parent="1" source="xlKwYq5IpJoC52id8MFw-27" target="xlKwYq5IpJoC52id8MFw-55">
          <mxGeometry relative="1" as="geometry" />
        </mxCell>
        <mxCell id="xlKwYq5IpJoC52id8MFw-62" value="Não" style="edgeLabel;html=1;align=center;verticalAlign=middle;resizable=0;points=[];" vertex="1" connectable="0" parent="xlKwYq5IpJoC52id8MFw-58">
          <mxGeometry x="-0.4133" y="2" relative="1" as="geometry">
            <mxPoint as="offset" />
          </mxGeometry>
        </mxCell>
        <mxCell id="xlKwYq5IpJoC52id8MFw-27" value="Sobremesa?" style="rhombus;whiteSpace=wrap;html=1;" vertex="1" parent="1">
          <mxGeometry x="370" y="690" width="80" height="80" as="geometry" />
        </mxCell>
        <mxCell id="xlKwYq5IpJoC52id8MFw-49" style="edgeStyle=orthogonalEdgeStyle;rounded=0;orthogonalLoop=1;jettySize=auto;html=1;" edge="1" parent="1" source="xlKwYq5IpJoC52id8MFw-33" target="xlKwYq5IpJoC52id8MFw-48">
          <mxGeometry relative="1" as="geometry" />
        </mxCell>
        <mxCell id="xlKwYq5IpJoC52id8MFw-33" value="Comer" style="rounded=0;whiteSpace=wrap;html=1;" vertex="1" parent="1">
          <mxGeometry x="354" y="900" width="120" height="60" as="geometry" />
        </mxCell>
        <mxCell id="xlKwYq5IpJoC52id8MFw-36" value="Fim" style="rounded=1;whiteSpace=wrap;html=1;" vertex="1" parent="1">
          <mxGeometry x="354" y="1090" width="120" height="60" as="geometry" />
        </mxCell>
        <mxCell id="xlKwYq5IpJoC52id8MFw-50" style="edgeStyle=orthogonalEdgeStyle;rounded=0;orthogonalLoop=1;jettySize=auto;html=1;" edge="1" parent="1" source="xlKwYq5IpJoC52id8MFw-48" target="xlKwYq5IpJoC52id8MFw-36">
          <mxGeometry relative="1" as="geometry" />
        </mxCell>
        <mxCell id="xlKwYq5IpJoC52id8MFw-48" value="Pagar" style="rounded=0;whiteSpace=wrap;html=1;" vertex="1" parent="1">
          <mxGeometry x="354" y="1000" width="120" height="60" as="geometry" />
        </mxCell>
        <mxCell id="xlKwYq5IpJoC52id8MFw-52" style="edgeStyle=orthogonalEdgeStyle;rounded=0;orthogonalLoop=1;jettySize=auto;html=1;entryX=1;entryY=0.5;entryDx=0;entryDy=0;" edge="1" parent="1" source="xlKwYq5IpJoC52id8MFw-51" target="xlKwYq5IpJoC52id8MFw-22">
          <mxGeometry relative="1" as="geometry">
            <Array as="points">
              <mxPoint x="560" y="600" />
            </Array>
          </mxGeometry>
        </mxCell>
        <mxCell id="xlKwYq5IpJoC52id8MFw-51" value="Salmão" style="rounded=0;whiteSpace=wrap;html=1;" vertex="1" parent="1">
          <mxGeometry x="500" y="510" width="120" height="60" as="geometry" />
        </mxCell>
        <mxCell id="xlKwYq5IpJoC52id8MFw-54" style="edgeStyle=orthogonalEdgeStyle;rounded=0;orthogonalLoop=1;jettySize=auto;html=1;entryX=0;entryY=0.5;entryDx=0;entryDy=0;" edge="1" parent="1" source="xlKwYq5IpJoC52id8MFw-53" target="xlKwYq5IpJoC52id8MFw-22">
          <mxGeometry relative="1" as="geometry">
            <Array as="points">
              <mxPoint x="280" y="600" />
            </Array>
          </mxGeometry>
        </mxCell>
        <mxCell id="xlKwYq5IpJoC52id8MFw-53" value="Bife peru" style="rounded=0;whiteSpace=wrap;html=1;" vertex="1" parent="1">
          <mxGeometry x="220" y="500" width="120" height="60" as="geometry" />
        </mxCell>
        <mxCell id="xlKwYq5IpJoC52id8MFw-59" style="edgeStyle=orthogonalEdgeStyle;rounded=0;orthogonalLoop=1;jettySize=auto;html=1;entryX=1;entryY=0.5;entryDx=0;entryDy=0;" edge="1" parent="1" source="xlKwYq5IpJoC52id8MFw-55" target="xlKwYq5IpJoC52id8MFw-33">
          <mxGeometry relative="1" as="geometry" />
        </mxCell>
        <mxCell id="xlKwYq5IpJoC52id8MFw-55" value="Café" style="rounded=0;whiteSpace=wrap;html=1;" vertex="1" parent="1">
          <mxGeometry x="454" y="800" width="120" height="60" as="geometry" />
        </mxCell>
        <mxCell id="xlKwYq5IpJoC52id8MFw-60" style="edgeStyle=orthogonalEdgeStyle;rounded=0;orthogonalLoop=1;jettySize=auto;html=1;entryX=0;entryY=0.5;entryDx=0;entryDy=0;" edge="1" parent="1" source="xlKwYq5IpJoC52id8MFw-56" target="xlKwYq5IpJoC52id8MFw-33">
          <mxGeometry relative="1" as="geometry" />
        </mxCell>
        <mxCell id="xlKwYq5IpJoC52id8MFw-56" value="Cheescake" style="rounded=0;whiteSpace=wrap;html=1;" vertex="1" parent="1">
          <mxGeometry x="250" y="800" width="120" height="60" as="geometry" />
        </mxCell>
      </root>
    </mxGraphModel>
  </diagram>
</mxfile>
